<svg width="24" height="24" viewBox="0 0 24 24" fill="none" xmlns="http://www.w3.org/2000/svg">
<g clip-path="url(#clip0_65_1003)">
<path fill-rule="evenodd" clip-rule="evenodd" d="M18.7878 9.12769C18.7878 11.6859 17.5201 13.9367 15.6055 15.2215C16.2985 15.471 16.9697 15.7909 17.6092 16.1786C19.3447 17.2308 20.7852 18.7438 21.7863 20.565C22.0191 20.9885 21.8827 21.5321 21.4747 21.7794C21.0637 22.0285 20.5404 21.8785 20.3062 21.4524C19.4537 19.9016 18.2278 18.6145 16.7521 17.7198C15.2766 16.8252 13.6029 16.3554 11.8997 16.3554C10.1964 16.3554 8.52305 16.8252 7.04748 17.7198C5.57183 18.6145 4.34591 19.9016 3.49342 21.4524C3.25919 21.8785 2.73595 22.0285 2.3249 21.7794C1.91689 21.5321 1.78046 20.9885 2.01325 20.565C3.01445 18.7438 4.45495 17.2308 6.19041 16.1786C6.82984 15.7909 7.50097 15.471 8.1939 15.2215C6.27924 13.9367 5.01153 11.6859 5.01153 9.12769C5.01153 5.14057 8.09096 1.90002 11.8997 1.90002C15.7084 1.90002 18.7878 5.14057 18.7878 9.12769ZM6.71825 9.12769C6.71825 6.11561 9.04255 3.68219 11.8997 3.68219C14.7568 3.68219 17.0811 6.11561 17.0811 9.12769C17.0811 12.1398 14.7568 14.5732 11.8997 14.5732C9.04255 14.5732 6.71825 12.1398 6.71825 9.12769Z" fill="#000000"/>
</g>
<defs>
<clipPath id="clip0_65_1003">
<rect width="20" height="20" fill="white" transform="translate(2 2)"/>
</clipPath>
</defs>
</svg>
